<svg xmlns="http://www.w3.org/2000/svg" viewBox="0 0 1480 900" font-family="Arial, Helvetica, sans-serif">
  <defs>
    <marker id="arrow" markerWidth="10" markerHeight="10" refX="7" refY="3" orient="auto" markerUnits="strokeWidth">
      <path d="M0,0 L7,3 L0,6 Z" fill="#0F4C75"/>
    </marker>
    <marker id="arrowAmber" markerWidth="12" markerHeight="12" refX="8" refY="3.5" orient="auto" markerUnits="strokeWidth">
      <path d="M0,0 L8,3.5 L0,7 Z" fill="#C8893A"/>
    </marker>
    <linearGradient id="hdr" x1="0" y1="0" x2="0" y2="1">
      <stop offset="0" stop-color="#0F4C75"/><stop offset="1" stop-color="#093454"/>
    </linearGradient>
  </defs>
  <rect x="0" y="0" width="1480" height="900" fill="#FFFFFF"/>
  <text x="40" y="46" font-size="26" font-weight="bold" fill="#0F4C75">VELOCITY HOSPITALITY OS</text>
  <text x="40" y="72" font-size="16" fill="#555555">The Agentic Execution Loop &#8212; Inputs &#8594; Agents &#8594; Human Approval &#8594; Actions &#8594; Systems &#8594; Reporting</text>
  <line x1="40" y1="86" x2="1440" y2="86" stroke="#C8893A" stroke-width="3"/>
  <g>
    <rect x="40" y="120" width="190" height="650" rx="10" fill="#F2F6FA" stroke="#CCCCCC"/>
    <rect x="40" y="120" width="190" height="40" rx="10" fill="url(#hdr)"/>
    <rect x="40" y="146" width="190" height="14" fill="#0F4C75"/>
    <text x="135" y="146" font-size="15" font-weight="bold" fill="#FFFFFF" text-anchor="middle">1 &#183; INPUTS</text>
    <text x="135" y="183" font-size="11.5" fill="#777777" text-anchor="middle">live operational signals</text>
    <g font-size="13" fill="#1A1A1A">
      <text x="56" y="220">&#8226; PMS events</text>
      <text x="56" y="252">&#8226; POS transactions</text>
      <text x="56" y="284">&#8226; Guest messages</text>
      <text x="56" y="316">&#8226; Work orders</text>
      <text x="56" y="348">&#8226; Job applications</text>
      <text x="56" y="380">&#8226; Reviews &amp; surveys</text>
      <text x="56" y="412">&#8226; Schedules &amp; shifts</text>
      <text x="56" y="444">&#8226; SOPs &amp; standards</text>
    </g>
  </g>
  <g>
    <rect x="290" y="120" width="360" height="650" rx="10" fill="#F2F6FA" stroke="#CCCCCC"/>
    <rect x="290" y="120" width="360" height="40" rx="10" fill="url(#hdr)"/>
    <rect x="290" y="146" width="360" height="14" fill="#0F4C75"/>
    <text x="470" y="145" font-size="12.5" font-weight="bold" fill="#FFFFFF" text-anchor="middle">2 &#183; AGENTS &#183; reason against the hotel&#8217;s own standards</text>
  </g>
  <g>
    <rect x="710" y="120" width="160" height="650" rx="10" fill="#FBF1E4" stroke="#C8893A" stroke-width="1.5"/>
    <rect x="710" y="120" width="160" height="40" rx="10" fill="#C8893A"/>
    <rect x="710" y="146" width="160" height="14" fill="#C8893A"/>
    <text x="790" y="146" font-size="14" font-weight="bold" fill="#FFFFFF" text-anchor="middle">3 &#183; HUMAN</text>
    <text x="790" y="188" font-size="14" font-weight="bold" fill="#8a5a1e" text-anchor="middle">APPROVAL GATE</text>
    <text x="790" y="232" font-size="12" fill="#5b4a33" text-anchor="middle">Manager approves</text>
    <text x="790" y="250" font-size="12" fill="#5b4a33" text-anchor="middle">anything that moves</text>
    <text x="790" y="268" font-size="12" fill="#5b4a33" text-anchor="middle">money, staffing, or</text>
    <text x="790" y="286" font-size="12" fill="#5b4a33" text-anchor="middle">the guest relationship</text>
    <text x="790" y="332" font-size="32" fill="#C8893A" text-anchor="middle">&#10003; / &#10007;</text>
    <text x="790" y="374" font-size="11.5" fill="#8a5a1e" text-anchor="middle" font-style="italic">human-in-the-loop</text>
    <text x="790" y="390" font-size="11.5" fill="#8a5a1e" text-anchor="middle" font-style="italic">by design</text>
  </g>
  <g>
    <rect x="930" y="120" width="160" height="650" rx="10" fill="#F2F6FA" stroke="#CCCCCC"/>
    <rect x="930" y="120" width="160" height="40" rx="10" fill="url(#hdr)"/>
    <rect x="930" y="146" width="160" height="14" fill="#0F4C75"/>
    <text x="1010" y="146" font-size="15" font-weight="bold" fill="#FFFFFF" text-anchor="middle">4 &#183; ACTIONS</text>
    <g font-size="12.5" fill="#1A1A1A">
      <text x="946" y="200">&#8226; Assign task</text>
      <text x="946" y="230">&#8226; Send message</text>
      <text x="946" y="260">&#8226; Route escalation</text>
      <text x="946" y="290">&#8226; Update record</text>
      <text x="946" y="320">&#8226; Trigger workflow</text>
      <text x="946" y="350">&#8226; Enforce pricing</text>
      <text x="946" y="380">&#8226; Log recovery</text>
    </g>
  </g>
  <g>
    <rect x="1150" y="120" width="160" height="650" rx="10" fill="#F2F6FA" stroke="#CCCCCC"/>
    <rect x="1150" y="120" width="160" height="40" rx="10" fill="url(#hdr)"/>
    <rect x="1150" y="146" width="160" height="14" fill="#0F4C75"/>
    <text x="1230" y="146" font-size="15" font-weight="bold" fill="#FFFFFF" text-anchor="middle">5 &#183; SYSTEMS</text>
    <text x="1230" y="183" font-size="11.5" fill="#777777" text-anchor="middle">write-back (not replace)</text>
    <g font-size="12.5" fill="#1A1A1A">
      <text x="1166" y="220">&#8226; PMS (Opera/Mews)</text>
      <text x="1166" y="250">&#8226; Micros / POS</text>
      <text x="1166" y="280">&#8226; SevenRooms</text>
      <text x="1166" y="310">&#8226; Payroll</text>
      <text x="1166" y="340">&#8226; Accounting</text>
      <text x="1166" y="370">&#8226; Inventory</text>
    </g>
  </g>
  <g>
    <rect x="1370" y="120" width="70" height="650" rx="10" fill="#0F4C75"/>
    <text x="1405" y="445" font-size="15" font-weight="bold" fill="#FFFFFF" text-anchor="middle" transform="rotate(90 1405 445)">6 &#183; REPORTING &amp; COMPLIANCE TRAIL</text>
  </g>
  <g>
    <rect x="306" y="174" width="328" height="78" rx="7" fill="#FFFFFF" stroke="#CCCCCC"/>
    <rect x="306" y="174" width="6" height="78" fill="#C8893A"/>
    <text x="322" y="198" font-size="13.5" font-weight="bold" fill="#0F4C75">1 &#183; HR Onboarding Agent</text>
    <text x="322" y="218" font-size="11.5" fill="#555555">Preboarding, visa tracking, document</text>
    <text x="322" y="234" font-size="11.5" fill="#555555">collection, training assignment</text>
    <rect x="306" y="258" width="328" height="78" rx="7" fill="#FFFFFF" stroke="#CCCCCC"/>
    <rect x="306" y="258" width="6" height="78" fill="#C8893A"/>
    <text x="322" y="282" font-size="13.5" font-weight="bold" fill="#0F4C75">2 &#183; SOP Coach Agent</text>
    <text x="322" y="302" font-size="11.5" fill="#555555">Procedure retrieval, role guidance,</text>
    <text x="322" y="318" font-size="11.5" fill="#555555">just-in-time multilingual help</text>
    <rect x="306" y="342" width="328" height="78" rx="7" fill="#FFFFFF" stroke="#CCCCCC"/>
    <rect x="306" y="342" width="6" height="78" fill="#C8893A"/>
    <text x="322" y="366" font-size="13.5" font-weight="bold" fill="#0F4C75">3 &#183; Workforce Planning Agent</text>
    <text x="322" y="386" font-size="11.5" fill="#555555">Staffing forecasts, seasonal planning,</text>
    <text x="322" y="402" font-size="11.5" fill="#555555">recruitment recommendations</text>
    <rect x="306" y="426" width="328" height="78" rx="7" fill="#FFFFFF" stroke="#CCCCCC"/>
    <rect x="306" y="426" width="6" height="78" fill="#C8893A"/>
    <text x="322" y="450" font-size="13.5" font-weight="bold" fill="#0F4C75">4 &#183; Work Order Agent</text>
    <text x="322" y="470" font-size="11.5" fill="#555555">Maintenance triage, priority scoring,</text>
    <text x="322" y="486" font-size="11.5" fill="#555555">escalation routing with SLAs</text>
    <rect x="306" y="510" width="328" height="78" rx="7" fill="#FFFFFF" stroke="#CCCCCC"/>
    <rect x="306" y="510" width="6" height="78" fill="#C8893A"/>
    <text x="322" y="534" font-size="13.5" font-weight="bold" fill="#0F4C75">5 &#183; Revenue Agent</text>
    <text x="322" y="554" font-size="11.5" fill="#555555">Upsell recommendations, leakage</text>
    <text x="322" y="570" font-size="11.5" fill="#555555">detection, pricing/pour compliance</text>
    <rect x="306" y="594" width="328" height="78" rx="7" fill="#FFFFFF" stroke="#CCCCCC"/>
    <rect x="306" y="594" width="6" height="78" fill="#C8893A"/>
    <text x="322" y="618" font-size="13.5" font-weight="bold" fill="#0F4C75">6 &#183; Guest Recovery Agent</text>
    <text x="322" y="638" font-size="11.5" fill="#555555">Complaint analysis, recovery actions,</text>
    <text x="322" y="654" font-size="11.5" fill="#555555">follow-up tracked to closure</text>
    <rect x="306" y="678" width="328" height="78" rx="7" fill="#FFFFFF" stroke="#CCCCCC"/>
    <rect x="306" y="678" width="6" height="78" fill="#C8893A"/>
    <text x="322" y="702" font-size="13.5" font-weight="bold" fill="#0F4C75">7 &#183; Executive Intelligence Agent</text>
    <text x="322" y="722" font-size="11.5" fill="#555555">Daily briefing: risk, staffing, revenue</text>
    <text x="322" y="738" font-size="11.5" fill="#555555">&amp; compliance alerts, single/multi-site</text>
  </g>
  <line x1="232" y1="445" x2="288" y2="445" stroke="#0F4C75" stroke-width="3" marker-end="url(#arrow)"/>
  <line x1="652" y1="445" x2="708" y2="445" stroke="#0F4C75" stroke-width="3" marker-end="url(#arrow)"/>
  <line x1="872" y1="445" x2="928" y2="445" stroke="#C8893A" stroke-width="3" marker-end="url(#arrowAmber)"/>
  <text x="900" y="436" font-size="10.5" fill="#8a5a1e" text-anchor="middle">approved</text>
  <line x1="1092" y1="445" x2="1148" y2="445" stroke="#0F4C75" stroke-width="3" marker-end="url(#arrow)"/>
  <line x1="1312" y1="445" x2="1368" y2="445" stroke="#0F4C75" stroke-width="3" marker-end="url(#arrow)"/>
  <path d="M1405,772 L1405,840 L135,840 L135,772" fill="none" stroke="#3282B8" stroke-width="2.5" stroke-dasharray="7 5" marker-end="url(#arrow)"/>
  <rect x="555" y="826" width="370" height="28" rx="14" fill="#FFFFFF" stroke="#3282B8"/>
  <text x="740" y="845" font-size="13" fill="#0F4C75" text-anchor="middle" font-weight="bold">Reporting feeds the next decision &#8212; continuous improvement</text>
  <text x="40" y="884" font-size="11" fill="#999999">Velocity AI Group &#183; Velocity Hospitality OS &#183; agents recommend &amp; prepare; people approve anything consequential before a real system changes.</text>
</svg>
